{"asset":{"version":"2.0","generator":"VECTARY"},"nodes":[{"translation":[0,0,0],"scale":[0.05,0.05000000000000002,0.05000000000000002],"rotation":[0,0,0,1],"name":"chainA_BMV.002","mesh":0},{"translation":[0,0,0],"scale":[0.05,0.05000000000000002,0.05000000000000002],"rotation":[0,0,0,1],"name":"chainBC_BMV.002","mesh":1}],"materials":[{"pbrMetallicRoughness":{"baseColorFactor":[0.8000000715255736,0.39939153194427485,0.2601884603500366,1],"metallicFactor":0,"roughnessFactor":1},"name":"Material.005","emissiveFactor":[0,0,0],"extensions":{},"alphaMode":"OPAQUE","doubleSided":true},{"pbrMetallicRoughness":{"baseColorFactor":[0.4700284302234649,0.596807599067688,0.8000000715255736,1],"metallicFactor":0,"roughnessFactor":1},"name":"Material.006","emissiveFactor":[0,0,0],"extensions":{},"alphaMode":"OPAQUE","doubleSided":true}],"meshes":[{"primitives":[{"mode":4,"attributes":{"POSITION":1,"NORMAL":2,"TEXCOORD_0":3},"material":0,"indices":0}]},{"primitives":[{"mode":4,"attributes":{"POSITION":5,"NORMAL":6,"TEXCOORD_0":7},"material":1,"indices":4}]}],"accessors":[{"bufferView":0,"byteOffset":0,"componentType":5125,"count":2554398,"type":"SCALAR"},{"bufferView":1,"byteOffset":0,"componentType":5126,"count":2553066,"max":[144.10269165039062,127.69015502929688,138.83355712890625],"min":[-144.12716674804688,-127.78111267089844,-139.42092895507812],"type":"VEC3"},{"bufferView":2,"byteOffset":0,"componentType":5126,"count":2553066,"type":"VEC3"},{"bufferView":3,"byteOffset":0,"componentType":5126,"count":2553066,"type":"VEC2"},{"bufferView":4,"byteOffset":0,"componentType":5125,"count":3963438,"type":"SCALAR"},{"bufferView":5,"byteOffset":0,"componentType":5126,"count":3961809,"max":[136.44544982910156,139.05874633789062,138.75271606445312],"min":[-136.58775329589844,-139.11993408203125,-139.45993041992188],"type":"VEC3"},{"bufferView":6,"byteOffset":0,"componentType":5126,"count":3961809,"type":"VEC3"},{"bufferView":7,"byteOffset":0,"componentType":5126,"count":3961809,"type":"VEC2"}],"bufferViews":[{"buffer":0,"byteOffset":0,"byteLength":10217592,"target":34963},{"buffer":0,"byteOffset":10217592,"byteLength":30636792,"target":34962},{"buffer":0,"byteOffset":40854384,"byteLength":30636792,"target":34962},{"buffer":0,"byteOffset":71491176,"byteLength":20424528,"target":34962},{"buffer":0,"byteOffset":91915704,"byteLength":15853752,"target":34963},{"buffer":0,"byteOffset":107769456,"byteLength":47541708,"target":34962},{"buffer":0,"byteOffset":155311164,"byteLength":47541708,"target":34962},{"buffer":0,"byteOffset":202852872,"byteLength":31694472,"target":34962}],"scene":0,"scenes":[{"nodes":[0,1],"name":"Project Name"}],"extensionsUsed":["KHR_texture_transform"],"buffers":[{"byteLength":234547344,"uri":"ProjectName.bin"}]}